<?xml version="1.0" encoding="UTF-8"?>
<svg version="1.1" xmlns="http://www.w3.org/2000/svg" width="266" height="190">
<path d="M0 0 C87.78 0 175.56 0 266 0 C266 62.7 266 125.4 266 190 C178.22 190 90.44 190 0 190 C0 127.3 0 64.6 0 0 Z " fill="#000000" transform="translate(0,0)"/>
<path d="M0 0 C1.45599609 0.00966797 1.45599609 0.00966797 2.94140625 0.01953125 C5.4375 0.1875 5.4375 0.1875 7.4375 1.1875 C7.4375 3.4975 7.4375 5.8075 7.4375 8.1875 C6.2 7.6925 6.2 7.6925 4.9375 7.1875 C0.8501017 6.01967191 -2.33173344 6.0416115 -6.5625 6.1875 C-6.8925 8.4975 -7.2225 10.8075 -7.5625 13.1875 C-6.69560547 13.16655273 -5.82871094 13.14560547 -4.93554688 13.12402344 C-1.6852621 13.05540438 1.56465057 13.00548549 4.81542969 12.96777344 C6.21594473 12.9477937 7.61637782 12.9205998 9.01660156 12.88574219 C17.79769227 12.67279134 25.03938003 12.49842676 32.01367188 18.55664062 C33.2078403 19.71477105 34.33231636 20.94416841 35.4375 22.1875 C35.7778125 21.0428125 35.7778125 21.0428125 36.125 19.875 C37.73642715 16.57541107 39.16059327 15.74793177 42.4375 14.1875 C45.43701762 13.2737814 48.18152713 13.02438452 51.3125 13 C52.54613281 12.97873047 52.54613281 12.97873047 53.8046875 12.95703125 C57.05979959 13.2419743 59.47603562 13.77398124 62.4375 15.1875 C63.94140625 17.8046875 63.94140625 17.8046875 65 21.0625 C65.39832031 22.22136719 65.79664063 23.38023438 66.20703125 24.57421875 C66.61308594 25.76660156 67.01914063 26.95898438 67.4375 28.1875 C68.33483508 30.42451845 69.25037266 32.65435727 70.1875 34.875 C70.59484375 35.84824219 71.0021875 36.82148437 71.421875 37.82421875 C72.05444708 39.29616532 72.72101216 40.75452431 73.4375 42.1875 C74.14807786 40.64686658 74.85575414 39.10489506 75.5625 37.5625 C76.01882812 36.56992188 76.47515625 35.57734375 76.9453125 34.5546875 C77.99190122 32.19301349 78.98362053 29.84572555 79.9296875 27.4453125 C80.30649658 26.50872803 80.30649658 26.50872803 80.69091797 25.55322266 C81.40905933 23.75857379 82.11112196 21.95751634 82.8125 20.15625 C84.97517232 16.20521403 87.28200324 14.907378 91.47265625 13.5078125 C96.75252858 12.64707785 102.26072138 12.85155713 107.4375 14.1875 C107.4375 16.8275 107.4375 19.4675 107.4375 22.1875 C104.4375 20.6875 104.4375 20.6875 101.4375 19.1875 C99.32794938 18.99011277 99.32794938 18.99011277 97 19 C95.82630859 18.97873047 95.82630859 18.97873047 94.62890625 18.95703125 C92.14544013 19.04663936 92.14544013 19.04663936 89.4375 21.1875 C89.1872843 24.27115871 89.1872843 24.27115871 89.4375 27.1875 C90.52417969 27.76757812 90.52417969 27.76757812 91.6328125 28.359375 C107.30330721 36.80054815 107.30330721 36.80054815 109.4375 41.1875 C110.09385436 45.00164811 110.29120368 48.52576404 108.48828125 52.03515625 C105.88911708 55.37225347 103.39467327 56.94025341 99.4375 58.1875 C92.61057748 58.84541368 86.23456928 59.16263322 80.4375 55.1875 C80.4375 52.5475 80.4375 49.9075 80.4375 47.1875 C82.72735602 48.33242801 84.93045113 49.48556347 87.125 50.8125 C91.22257142 52.5133787 95.04876393 53.04016872 99.4375 52.1875 C101.69738133 50.40097219 102.34461723 49.58999202 103 46.75 C102.66100541 43.96369488 102.66100541 43.96369488 100.0625 42.1875 C96.429512 40.05095706 92.60948991 38.24117122 88.8046875 36.43359375 C86.47678682 35.20818068 84.4934983 33.82187653 82.4375 32.1875 C82.32921875 33.04214844 82.2209375 33.89679688 82.109375 34.77734375 C81.39195467 38.41866904 80.20792767 41.36822403 78.6875 44.75 C76.08738139 50.60972185 73.74051752 56.52834263 71.515625 62.54296875 C70.4375 65.1875 70.4375 65.1875 68.4375 68.1875 C64.8125 68.375 64.8125 68.375 61.4375 68.1875 C61.97761719 67.13691406 62.51773438 66.08632812 63.07421875 65.00390625 C63.75936458 63.58668679 64.44287197 62.16867443 65.125 60.75 C65.48400391 60.06228516 65.84300781 59.37457031 66.21289062 58.66601562 C68.07707201 54.69770872 68.80332646 52.10784046 67.4296875 47.8671875 C66.78885779 46.29760434 66.12284418 44.73816353 65.4375 43.1875 C64.70464894 41.31473258 63.97429437 39.44098683 63.24609375 37.56640625 C62.45880657 35.62635249 61.66840323 33.68756058 60.875 31.75 C60.47603516 30.75806641 60.07707031 29.76613281 59.66601562 28.74414062 C59.27994141 27.79861328 58.89386719 26.85308594 58.49609375 25.87890625 C58.14861084 25.02498291 57.80112793 24.17105957 57.44311523 23.29125977 C56.50899686 21.0369877 56.50899686 21.0369877 54.4375 19.1875 C50.0543051 18.01864803 47.49535349 18.15857326 43.4375 20.1875 C43.1075 22.4975 42.7775 24.8075 42.4375 27.1875 C43.46230469 27.70699219 44.48710937 28.22648437 45.54296875 28.76171875 C46.90390243 29.46564996 48.26456527 30.17010498 49.625 30.875 C50.63530273 31.38450195 50.63530273 31.38450195 51.66601562 31.90429688 C55.93746464 34.1337849 59.3597562 36.37696005 62.4375 40.1875 C63.51894309 44.20156228 63.36036646 48.34553388 61.48046875 52.09765625 C58.91570796 55.41149003 56.34805507 56.94246076 52.4375 58.1875 C49.5 58.453125 49.5 58.453125 46.4375 58.4375 C44.9215625 58.44523437 44.9215625 58.44523437 43.375 58.453125 C40.3671024 58.18113426 38.16443207 57.45071118 35.4375 56.1875 C35.4375 53.5475 35.4375 50.9075 35.4375 48.1875 C36.571875 48.8475 37.70625 49.5075 38.875 50.1875 C43.35447782 52.43520951 47.48294133 53.02791824 52.4375 52.1875 C55.43427258 50.52227942 55.43427258 50.52227942 56.4375 48.375 C56.67391036 45.93994636 56.67391036 45.93994636 54.39453125 43.7890625 C51.13921614 40.92507325 48.02050847 39.19236904 44.125 37.375 C43.47982422 37.06369141 42.83464844 36.75238281 42.16992188 36.43164062 C40.59690656 35.67426288 39.01780874 34.92953942 37.4375 34.1875 C37.46328125 35.25742188 37.4890625 36.32734375 37.515625 37.4296875 C37.37885533 44.00830885 35.1316771 49.4933229 30.4375 54.1875 C25.22323825 58.20682676 20.93199626 58.87869986 14.375 58.6328125 C8.17821606 57.69340642 4.22190568 54.53114839 0.5 49.625 C-3.93459779 43.1159124 -3.30520798 34.73309704 -2.5625 27.1875 C-1.24113724 23.92105431 0.18580711 21.94582379 2.4375 19.1875 C-0.8625 18.8575 -4.1625 18.5275 -7.5625 18.1875 C-7.5625 31.0575 -7.5625 43.9275 -7.5625 57.1875 C-9.8725 57.1875 -12.1825 57.1875 -14.5625 57.1875 C-14.5625 44.3175 -14.5625 31.4475 -14.5625 18.1875 C-16.2125 18.1875 -17.8625 18.1875 -19.5625 18.1875 C-19.5625 16.5375 -19.5625 14.8875 -19.5625 13.1875 C-17.9125 13.1875 -16.2625 13.1875 -14.5625 13.1875 C-14.500625 12.300625 -14.43875 11.41375 -14.375 10.5 C-12.64024954 3.42755583 -6.9720231 -0.10212018 0 0 Z " fill="#0077BB" transform="translate(110.5625,39.8125)"/>
<path d="M0 0 C4.27098713 3.39249087 6.90953967 7.6567444 8 13 C8.59901818 20.42782547 7.34215546 26.02482956 2.6875 31.9375 C-0.40042602 34.30730369 -2.12575033 34.91928647 -6 35 C-10.37418185 34.12516363 -12.98095963 31.56911259 -15.6953125 28.1796875 C-18.64933251 23.24452832 -19.40343146 17.90223656 -18.6171875 12.24609375 C-17.24303699 6.94692714 -15.43066822 3.43376787 -11 0 C-7.111745 -1.296085 -3.85323432 -1.30383543 0 0 Z " fill="#000101" transform="translate(133,59)"/>
<path d="M0 0 C2.31 0 4.62 0 7 0 C7.33 0.99 7.66 1.98 8 3 C8.66 2.34 9.32 1.68 10 1 C15.81446379 -0.93399547 22.00449809 -0.96211699 27.5 1.6875 C31.21226342 5.12134366 31.92444147 7.74190992 32.22705078 12.78051758 C32.22673701 14.23522724 32.21560903 15.68996315 32.1953125 17.14453125 C32.1924826 17.91431808 32.18965271 18.68410492 32.18673706 19.47721863 C32.17559157 21.92247425 32.15049781 24.36735612 32.125 26.8125 C32.1149629 28.47590615 32.10583833 30.13931807 32.09765625 31.80273438 C32.07567073 35.86863237 32.04118014 39.93425294 32 44 C29.69 44 27.38 44 25 44 C24.97494385 42.98574951 24.9498877 41.97149902 24.92407227 40.92651367 C24.82990355 37.16368973 24.72970595 33.40104631 24.62768555 29.63842773 C24.58437251 28.00988996 24.54269482 26.38130784 24.50268555 24.75268555 C24.44489497 22.41181065 24.38122602 20.07115824 24.31640625 17.73046875 C24.29969376 17.00224411 24.28298126 16.27401947 24.26576233 15.52372742 C24.17532762 12.43833061 23.98276007 9.94828022 23 7 C16.87626219 5.82305884 16.87626219 5.82305884 11 7.375 C9.12076359 8.8449367 9.12076359 8.8449367 8 10 C7.84011509 12.51880517 7.74065775 15.01342266 7.68359375 17.53515625 C7.66281265 18.28840683 7.64203156 19.04165741 7.62062073 19.81773376 C7.55504575 22.2325599 7.49620379 24.64749798 7.4375 27.0625 C7.3943223 28.69597529 7.35070827 30.3294391 7.30664062 31.96289062 C7.19935638 35.97514464 7.09811179 39.98751164 7 44 C4.69 44 2.38 44 0 44 C0 29.48 0 14.96 0 0 Z " fill="#0077BB" transform="translate(59,53)"/>
<path d="M0 0 C2.31 0 4.62 0 7 0 C7 18.48 7 36.96 7 56 C4.69 56 2.38 56 0 56 C0 37.52 0 19.04 0 0 Z " fill="#007CC4" transform="translate(46,41)"/>
<path d="M0 0 C0.11608127 4.41644598 0.1872132 8.83250017 0.25 13.25 C0.30027344 15.13138672 0.30027344 15.13138672 0.3515625 17.05078125 C0.36445313 18.25605469 0.37734375 19.46132812 0.390625 20.703125 C0.41157227 21.81333008 0.43251953 22.92353516 0.45410156 24.06738281 C-0.10177282 27.65725542 -1.17080122 28.79984054 -4 31 C-6.85767202 31.64722706 -9.01567914 31.28422103 -12 31 C-12.99 30.34 -13.98 29.68 -15 29 C-15.1875 25.875 -15.1875 25.875 -15 23 C-13.68 23 -12.36 23 -11 23 C-11 23.99 -11 24.98 -11 26 C-9.35 26 -7.7 26 -6 26 C-6 24.35 -6 22.7 -6 21 C-8.64 21 -11.28 21 -14 21 C-15.85131483 17.07142246 -16.22004943 14.01224888 -16.125 9.6875 C-16.10695313 8.61886719 -16.08890625 7.55023438 -16.0703125 6.44921875 C-16.04710938 5.64097656 -16.02390625 4.83273438 -16 4 C-14.35 3.67 -12.7 3.34 -11 3 C-10.67 6.96 -10.34 10.92 -10 15 C-8.35 15.33 -6.7 15.66 -5 16 C-5 11.05 -5 6.1 -5 1 C-3 0 -3 0 0 0 Z " fill="#E75520" transform="translate(137,119)"/>
<path d="M0 0 C1.65 0 3.3 0 5 0 C5.08696177 3.93736123 5.14037835 7.87447628 5.1875 11.8125 C5.21263672 12.93205078 5.23777344 14.05160156 5.26367188 15.20507812 C5.27817383 16.81479492 5.27817383 16.81479492 5.29296875 18.45703125 C5.31653442 19.9416687 5.31653442 19.9416687 5.34057617 21.45629883 C5 24 5 24 2 27 C-1.96 27 -5.92 27 -10 27 C-10 18.42 -10 9.84 -10 1 C-8.35 1 -6.7 1 -5 1 C-4.67 7.6 -4.34 14.2 -4 21 C-2.68 21.33 -1.36 21.66 0 22 C0 14.74 0 7.48 0 0 Z " fill="#E45420" transform="translate(150,117)"/>
<path d="M0 0 C1.65 0 3.3 0 5 0 C5 7.26 5 14.52 5 22 C-4.9609375 22.29296875 -4.9609375 22.29296875 -8 22 C-11.09885964 17.35171055 -10.87836036 12.43532392 -10 7 C-7.0186275 4.15113295 -4.85570084 3.28523361 -1 2 C-0.67 1.34 -0.34 0.68 0 0 Z " fill="#DE521F" transform="translate(186,122)"/>
<path d="M0 0 C1.65 0 3.3 0 5 0 C5.33 6.6 5.66 13.2 6 20 C7.32 20.33 8.64 20.66 10 21 C10.33 14.4 10.66 7.8 11 1 C12.32 1 13.64 1 15 1 C15.11601004 4.60389664 15.18718408 8.20731467 15.25 11.8125 C15.28351563 12.83666016 15.31703125 13.86082031 15.3515625 14.91601562 C15.36445313 15.89892578 15.37734375 16.88183594 15.390625 17.89453125 C15.41157227 18.80050049 15.43251953 19.70646973 15.45410156 20.63989258 C15 23 15 23 13.19433594 24.79174805 C9.96010645 26.57258936 7.62556338 26.45319542 4 26 C1.796875 24.67578125 1.796875 24.67578125 0 22 C-0.49762618 18.2397738 -0.37486662 14.53441898 -0.25 10.75 C-0.23195312 9.71875 -0.21390625 8.6875 -0.1953125 7.625 C-0.14822712 5.08238936 -0.0824805 2.54166838 0 0 Z " fill="#EC5721" transform="translate(158,118)"/>
<path d="M0 0 C0.76441406 -0.0103125 1.52882813 -0.020625 2.31640625 -0.03125 C4.4375 0.5 4.4375 0.5 6.203125 2.171875 C7.73557339 5.06218905 7.74115174 6.99775114 7.625 10.25 C7.59792969 11.23484375 7.57085937 12.2196875 7.54296875 13.234375 C7.50816406 13.98203125 7.47335938 14.7296875 7.4375 15.5 C5.7875 15.5 4.1375 15.5 2.4375 15.5 C2.1075 12.53 1.7775 9.56 1.4375 6.5 C0.1175 6.5 -1.2025 6.5 -2.5625 6.5 C-3.21585766 10.56592357 -3.21585766 10.56592357 -2.5625 14.5 C0.13300589 17.31110263 3.15763294 19.41754472 6.4375 21.5 C6.125 23.4375 6.125 23.4375 5.4375 25.5 C4.4475 25.83 3.4575 26.16 2.4375 26.5 C-0.0078125 24.91796875 -0.0078125 24.91796875 -2.6875 22.6875 C-3.57695313 21.95917969 -4.46640625 21.23085937 -5.3828125 20.48046875 C-7.97467923 18.12549307 -8.49220117 17.29057378 -8.80078125 13.8203125 C-8.82527344 12.76585938 -8.84976563 11.71140625 -8.875 10.625 C-8.91238281 9.57570313 -8.94976562 8.52640625 -8.98828125 7.4453125 C-8.5625 4.5 -8.5625 4.5 -6.828125 2.1484375 C-4.29251567 0.30356312 -3.09835721 -0.04194054 0 0 Z " fill="#0077BC" transform="translate(54.5625,103.5)"/>
<path d="M0 0 C1.65 0 3.3 0 5 0 C5 9.9 5 19.8 5 30 C2.525 29.01 2.525 29.01 0 28 C0 23.38 0 18.76 0 14 C-1.65 14 -3.3 14 -5 14 C-5 17.3 -5 20.6 -5 24 C-7.475 23.01 -7.475 23.01 -10 22 C-10.05391993 20.20866022 -10.09275571 18.41686101 -10.125 16.625 C-10.14820313 15.62726563 -10.17140625 14.62953125 -10.1953125 13.6015625 C-10 11 -10 11 -8 9 C-4.375 8.875 -4.375 8.875 -1 9 C-0.67 6.03 -0.34 3.06 0 0 Z " fill="#0077BB" transform="translate(215,104)"/>
<path d="M0 0 C1.65 0 3.3 0 5 0 C5.33 3.63 5.66 7.26 6 11 C7.32 11.33 8.64 11.66 10 12 C10 8.04 10 4.08 10 0 C11.65 0 13.3 0 15 0 C15.05383848 2.45862401 15.09359038 4.9160755 15.125 7.375 C15.14175781 8.07367188 15.15851563 8.77234375 15.17578125 9.4921875 C15.19344267 11.32897486 15.10303261 13.16601963 15 15 C13 17 13 17 10 17.1875 C7 17 7 17 5 16 C5 18.31 5 20.62 5 23 C3.35 23 1.7 23 0 23 C0 15.41 0 7.82 0 0 Z " fill="#D74F1E" transform="translate(65,127)"/>
<path d="M0 0 C1.65 0 3.3 0 5 0 C5.33 3.3 5.66 6.6 6 10 C7.32 10 8.64 10 10 10 C10.33 7.36 10.66 4.72 11 2 C12.65 1.67 14.3 1.34 16 1 C16.61442979 10.89914663 16.61442979 10.89914663 14.5 14.6875 C11.05872543 16.49416915 7.79414109 17.00781873 4 16 C1.765625 14.359375 1.765625 14.359375 0 12 C-0.390625 8.984375 -0.390625 8.984375 -0.25 5.75 C-0.21390625 4.67234375 -0.1778125 3.5946875 -0.140625 2.484375 C-0.09421875 1.66453125 -0.0478125 0.8446875 0 0 Z " fill="#E45420" transform="translate(46,128)"/>
<path d="M0 0 C12.75 -0.125 12.75 -0.125 15 1 C15 3.97 15 6.94 15 10 C13.68 10.33 12.36 10.66 11 11 C10.67 9.35 10.34 7.7 10 6 C8.68 6 7.36 6 6 6 C5.96261719 6.61488281 5.92523438 7.22976562 5.88671875 7.86328125 C5.82097656 8.67152344 5.75523438 9.47976562 5.6875 10.3125 C5.62949219 11.11300781 5.57148437 11.91351563 5.51171875 12.73828125 C4.91161175 15.39066259 4.14291033 16.36503879 2 18 C1.34 18 0.68 18 0 18 C0 12.06 0 6.12 0 0 Z " fill="#0076B9" transform="translate(103,113)"/>
<path d="M0 0 C9.9609375 -0.1953125 9.9609375 -0.1953125 13 0 C15 2 15 2 15.1953125 4.6015625 C15.17210938 5.59929687 15.14890625 6.59703125 15.125 7.625 C15.10695313 8.62789062 15.08890625 9.63078125 15.0703125 10.6640625 C15.03550781 11.82035156 15.03550781 11.82035156 15 13 C13.35 12.67 11.7 12.34 10 12 C10 9.69 10 7.38 10 5 C8.68 5.33 7.36 5.66 6 6 C5.67 8.31 5.34 10.62 5 13 C3.35 13 1.7 13 0 13 C0 8.71 0 4.42 0 0 Z " fill="#0072B3" transform="translate(65,113)"/>
<path d="M0 0 C2.475 0.99 2.475 0.99 5 2 C5 4.97 5 7.94 5 11 C6.32 10.67 7.64 10.34 9 10 C9.33 8.02 9.66 6.04 10 4 C12.475 4.99 12.475 4.99 15 6 C15 9.3 15 12.6 15 16 C13.06318839 16.08107583 11.1254066 16.13922475 9.1875 16.1875 C8.10855469 16.22230469 7.02960938 16.25710937 5.91796875 16.29296875 C3 16 3 16 1.125 14.90625 C-0.56870427 12.03636221 -0.28535186 9.60684583 -0.1875 6.3125 C-0.16042969 5.13300781 -0.13335937 3.95351562 -0.10546875 2.73828125 C-0.07066406 1.83464844 -0.03585938 0.93101562 0 0 Z " fill="#E45420" transform="translate(205,128)"/>
<path d="M0 0 C1.65 0 3.3 0 5 0 C5 7.26 5 14.52 5 22 C2 22 2 22 0 21 C0 14.07 0 7.14 0 0 Z " fill="#006DAC" transform="translate(95,113)"/>
<path d="M0 0 C3.33333333 0 6.66666667 0 10 0 C10 1.65 10 3.3 10 5 C9.360625 5.165 8.72125 5.33 8.0625 5.5 C5.83880759 6.781786 5.83880759 6.781786 5.51171875 8.9140625 C5.2724022 10.93575155 5.13106972 12.96841939 5 15 C3.35 14.67 1.7 14.34 0 14 C0 9.38 0 4.76 0 0 Z " fill="#0075B9" transform="translate(83,113)"/>
<path d="M0 0 C2.475 0.495 2.475 0.495 5 1 C5 7.27 5 13.54 5 20 C3.35 20 1.7 20 0 20 C0 13.4 0 6.8 0 0 Z " fill="#D44E1E" transform="translate(194,124)"/>
<path d="M0 0 C1.77503906 0.03480469 1.77503906 0.03480469 3.5859375 0.0703125 C5.36871094 0.09738281 5.36871094 0.09738281 7.1875 0.125 C8.10273438 0.14820312 9.01796875 0.17140625 9.9609375 0.1953125 C9.9609375 1.5153125 9.9609375 2.8353125 9.9609375 4.1953125 C8.98253906 4.37707031 8.98253906 4.37707031 7.984375 4.5625 C3.17447408 5.48475239 -1.42931715 6.49698527 -6.0390625 8.1953125 C-5.01212382 0.32211593 -5.01212382 0.32211593 0 0 Z " fill="#0074B6" transform="translate(127.0390625,112.8046875)"/>
<path d="M0 0 C1.65 0 3.3 0 5 0 C5.33 2.97 5.66 5.94 6 9 C8.31 9 10.62 9 13 9 C13.33 9.66 13.66 10.32 14 11 C9.38 11.33 4.76 11.66 0 12 C0 8.04 0 4.08 0 0 Z " fill="#0076BA" transform="translate(140,104)"/>
<path d="M0 0 C2.475 0.495 2.475 0.495 5 1 C5 5.62 5 10.24 5 15 C3.35 15 1.7 15 0 15 C0 10.05 0 5.1 0 0 Z " fill="#DE521F" transform="translate(83,129)"/>
<path d="M0 0 C0 6.27 0 12.54 0 19 C-1.32 19 -2.64 19 -4 19 C-4.08071788 16.20775927 -4.14035408 13.41783434 -4.1875 10.625 C-4.21263672 9.8309375 -4.23777344 9.036875 -4.26367188 8.21875 C-4.29004405 6.14413852 -4.15486462 4.06899135 -4 2 C-1 0 -1 0 0 0 Z " fill="#EF5821" transform="translate(118,125)"/>
<path d="M0 0 C2.97 0 5.94 0 9 0 C9.1875 2.375 9.1875 2.375 9 5 C8.01 5.66 7.02 6.32 6 7 C5.67 7.99 5.34 8.98 5 10 C3.35 9.67 1.7 9.34 0 9 C0 6.03 0 3.06 0 0 Z " fill="#0070AF" transform="translate(194,113)"/>
<path d="M0 0 C3.03333332 -0.22893082 5.97318834 -0.34883468 9 0 C11.0625 1.8125 11.0625 1.8125 12 4 C12 4.99 12 5.98 12 7 C7.38 6.01 2.76 5.02 -2 4 C-1.34 2.68 -0.68 1.36 0 0 Z " fill="#0075B9" transform="translate(179,113)"/>
<path d="M0 0 C0 4.29 0 8.58 0 13 C-1.65 13 -3.3 13 -5 13 C-5.10824843 11.3973218 -5.18570645 9.79254252 -5.25 8.1875 C-5.29640625 7.29417969 -5.3428125 6.40085938 -5.390625 5.48046875 C-5 3 -5 3 -3.046875 1.17578125 C-1 0 -1 0 0 0 Z " fill="#E0531F" transform="translate(108,131)"/>
<path d="M0 0 C1.32 0 2.64 0 4 0 C4 2.64 4 5.28 4 8 C2.35 8.33 0.7 8.66 -1 9 C-1.09765625 2.84765625 -1.09765625 2.84765625 -1 1 C-0.67 0.67 -0.34 0.34 0 0 Z " fill="#040100" transform="translate(182,130)"/>
<path d="M0 0 C2.625 0.375 2.625 0.375 5 1 C5.042721 2.66611905 5.04063832 4.33382885 5 6 C4 7 4 7 1.4375 7.0625 C0.2309375 7.0315625 0.2309375 7.0315625 -1 7 C-1.625 4.625 -1.625 4.625 -2 2 C-1.34 1.34 -0.68 0.68 0 0 Z " fill="#DD511E" transform="translate(96,104)"/>
<path d="M0 0 C0 1.98 0 3.96 0 6 C-3.75 7.125 -3.75 7.125 -6 6 C-6.625 3.4375 -6.625 3.4375 -7 1 C-1.125 0 -1.125 0 0 0 Z " fill="#260E05" transform="translate(132,139)"/>
<path d="M0 0 C2.475 0.495 2.475 0.495 5 1 C5 2.98 5 4.96 5 7 C3.35 7 1.7 7 0 7 C0 4.69 0 2.38 0 0 Z " fill="#C7491C" transform="translate(95,137)"/>
<path d="M0 0 C1.258125 -0.020625 2.51625 -0.04125 3.8125 -0.0625 C4.52019531 -0.07410156 5.22789062 -0.08570312 5.95703125 -0.09765625 C8 0 8 0 11 1 C11 1.66 11 2.32 11 3 C7.04 2.67 3.08 2.34 -1 2 C-0.67 1.34 -0.34 0.68 0 0 Z " fill="#0074B6" transform="translate(161,113)"/>
<path d="M0 0 C1.65 0 3.3 0 5 0 C5 1.32 5 2.64 5 4 C3.35 4 1.7 4 0 4 C0 2.68 0 1.36 0 0 Z " fill="#D54F1D" transform="translate(176,120)"/>
</svg>
